<svg xmlns="http://www.w3.org/2000/svg" fill="none" viewBox="0 0 497 219" height="219" width="497">
<path fill="#3B2A00" d="M40.5426 161.909L52.0054 161.163C52.0054 160.083 51.9343 159.073 51.8064 158.142C51.6714 157.219 51.2805 156.103 50.648 154.788C49.5181 152.891 48.1821 151.938 46.6399 151.938C44.8349 151.938 43.3425 152.869 42.17 154.724C41.4877 155.854 41.04 157.098 40.8126 158.455C40.5852 159.812 40.4928 160.964 40.5355 161.916M30.0889 165.107C30.0889 159.77 31.5884 155.506 34.5944 152.322C37.6005 149.131 41.6867 147.54 46.8389 147.54C51.9911 147.54 56.0561 149.323 58.7423 152.898C61.4286 156.465 62.7717 160.878 62.7717 166.123H40.5284C40.8482 169.449 42.042 172.313 44.1243 174.722C46.2065 177.131 48.8785 178.332 52.1333 178.332C54.5708 178.332 57.1931 177.835 59.9931 176.84L61.4215 180.706C57.2144 182.56 53.0998 183.484 49.0704 183.484C43.2359 183.484 38.6167 181.779 35.2056 178.36C31.7945 174.942 30.0818 170.529 30.0818 165.1"></path>
<path fill="#3B2A00" d="M77.7806 166.457C77.7806 170.167 78.5836 172.967 80.1897 174.871C81.7887 176.769 83.3876 177.721 84.9653 177.721C87.2251 177.721 89.2221 176.889 90.9418 175.212V152.422C89.6698 152.109 88.5612 151.946 87.616 151.946C84.6313 151.946 82.2506 153.132 80.4598 155.506C78.676 157.879 77.7806 161.532 77.7806 166.457ZM67.064 166.734C67.064 160.623 68.997 155.904 72.87 152.557C76.736 149.21 81.4476 147.54 87.0119 147.54C88.4119 147.54 89.7266 147.675 90.949 147.945V134.378H85.1785V130.782L96.0301 128.203H101.459V177.38H106.754V180.293C106.477 180.528 106.107 180.812 105.631 181.175C105.155 181.537 104.217 182.013 102.817 182.596C101.417 183.186 100.081 183.477 98.8087 183.477C96.9113 183.477 95.3123 183.029 94.0332 182.12C92.7469 181.217 91.823 180.244 91.283 179.206C88.7957 182.056 85.747 183.484 82.1298 183.484C78.0151 183.484 74.4761 182.056 71.5127 179.178C68.5493 176.307 67.0711 172.156 67.0711 166.734"></path>
<path fill="#3B2A00" d="M110.542 182.461V178.311L134.959 140.135H117.932L115.019 149.906H111.146V134.982H149.002V139.133L124.648 177.309H142.08L146.827 167.807H150.558L148.59 182.461H110.542Z"></path>
<path fill="#3B2A00" d="M178.977 178.801C182.914 178.801 185.892 177.053 187.931 173.542C189.964 170.039 190.987 165.1 190.987 158.718C190.987 152.336 189.957 147.405 187.896 143.894C185.842 140.39 182.864 138.642 178.977 138.642C175.09 138.642 172.055 140.39 170.023 143.894C167.99 147.405 166.974 152.344 166.974 158.718C166.974 165.093 167.976 170.039 169.995 173.542C172.006 177.046 174.997 178.801 178.977 178.801ZM155.575 158.718C155.575 151.398 157.601 145.436 161.651 140.845C165.695 136.254 171.473 133.959 178.977 133.959C186.482 133.959 192.153 136.219 196.239 140.739C200.332 145.265 202.379 151.256 202.379 158.718C202.379 166.18 200.332 172.114 196.239 176.662C192.145 181.203 186.389 183.477 178.977 183.477C171.565 183.477 165.802 181.231 161.715 176.726C157.622 172.228 155.575 166.223 155.575 158.718Z"></path>
<path fill="#3B2A00" d="M231.48 178.801C235.417 178.801 238.402 177.053 240.434 173.542C242.467 170.039 243.483 165.1 243.483 158.718C243.483 152.336 242.452 147.405 240.399 143.894C238.338 140.39 235.367 138.642 231.48 138.642C227.593 138.642 224.558 140.39 222.526 143.894C220.493 147.405 219.477 152.344 219.477 158.718C219.477 165.093 220.479 170.039 222.497 173.542C224.508 177.046 227.5 178.801 231.487 178.801M208.085 158.718C208.085 151.398 210.111 145.436 214.154 140.845C218.205 136.254 223.983 133.959 231.487 133.959C238.992 133.959 244.662 136.219 248.749 140.739C252.842 145.265 254.889 151.256 254.889 158.718C254.889 166.18 252.842 172.114 248.749 176.662C244.655 181.203 238.899 183.477 231.487 183.477C224.075 183.477 218.312 181.231 214.225 176.726C210.132 172.228 208.092 166.223 208.092 158.718"></path>
<path fill="#3B2A00" d="M260.034 165.37C260.034 160.125 261.768 155.84 265.222 152.514C268.682 149.188 272.762 147.532 277.466 147.532C281.403 147.532 285.269 148.478 289.064 150.382C288.929 154.134 287.273 156.892 284.111 158.654L278.276 151.946H277.871C275.974 152.486 274.304 153.871 272.861 156.117C271.411 158.356 270.686 161.482 270.686 165.512C270.637 170.032 271.66 173.429 273.735 175.688C275.682 177.543 278.212 178.474 281.332 178.474C282.647 178.474 283.919 178.36 285.162 178.133C286.406 177.906 287.685 177.586 289 177.181L289.81 181.182C286.15 182.717 282.398 183.491 278.553 183.491C273.444 183.491 269.08 181.864 265.463 178.602C261.846 175.347 260.034 170.941 260.034 165.377"></path>
<path fill="#3B2A00" d="M304.059 173.443C304.059 174.757 304.499 175.795 305.373 176.562C306.254 177.337 307.328 177.714 308.6 177.714C310.632 177.714 312.331 176.968 313.688 175.475V166.187C311.151 166.187 308.912 166.855 306.979 168.184C305.032 169.52 304.059 171.268 304.059 173.443ZM293.136 174.054C293.136 170.117 294.749 167.125 297.983 165.064C301.216 163.01 306.453 161.98 313.688 161.98V159.94C313.688 158.583 313.681 157.602 313.659 156.991C313.638 156.38 313.532 155.648 313.354 154.788C313.169 153.928 312.913 153.324 312.572 152.955C312.231 152.592 311.727 152.265 311.051 151.974C310.376 151.683 309.538 151.533 308.543 151.533L299.93 158.995C296.853 157.233 295.318 154.497 295.318 150.787L297.35 149.906C298.21 149.551 299.88 149.06 302.367 148.449C304.855 147.838 307.271 147.54 309.63 147.54C319.352 147.54 324.213 151.427 324.213 159.201V177.38H329.507V180.293C329.28 180.521 328.96 180.812 328.555 181.175C328.15 181.537 327.261 182.013 325.911 182.596C324.554 183.186 323.154 183.477 321.704 183.477C318.264 183.477 315.713 182.326 314.036 180.016C311.009 182.326 307.711 183.477 304.13 183.477C301.017 183.477 298.402 182.688 296.298 181.104C294.195 179.519 293.143 177.174 293.143 174.054"></path>
<path fill="#3B2A00" d="M331.795 153.296V150.581L343.322 142.373H345.831V148.89L354.245 148.549V153.289H345.831V172.689C345.831 174.914 346.079 176.463 346.577 177.373C347.074 178.282 348.098 178.73 349.633 178.73C350.755 178.73 352.276 178.318 354.174 177.508L355.261 181.303C352.546 182.752 349.675 183.477 346.648 183.477C339.143 183.477 335.391 179.995 335.391 173.031V153.289H331.795V153.296Z"></path>
<path fill="#3B2A00" d="M362.247 138.102C362.247 136.34 362.858 134.854 364.08 133.661C365.302 132.46 366.795 131.855 368.557 131.855C370.32 131.855 371.869 132.46 373.063 133.661C374.264 134.854 374.861 136.34 374.861 138.102C374.861 139.865 374.257 141.428 373.063 142.65C371.862 143.873 370.362 144.484 368.557 144.484C366.752 144.484 365.302 143.873 364.08 142.65C362.858 141.428 362.247 139.914 362.247 138.102ZM357.563 182.461V178.872L363.327 177.515V154.724H357.563V151.128L368.415 148.549H373.773V177.515L379.544 178.872V182.461H357.563Z"></path>
<path fill="#3B2A00" d="M393.316 165.434C393.316 169.683 393.942 173.023 395.178 175.44C396.422 177.863 398.262 179.078 400.707 179.078C403.152 179.078 404.992 177.87 406.236 175.44C407.479 173.023 408.098 169.683 408.098 165.434C408.098 161.184 407.479 157.929 406.236 155.534C404.992 153.132 403.152 151.931 400.707 151.931C398.262 151.931 396.422 153.132 395.178 155.534C393.934 157.929 393.316 161.227 393.316 165.434ZM400.707 183.477C398.127 183.477 395.718 183.029 393.48 182.12C391.241 181.217 389.308 179.974 387.681 178.396C386.053 176.811 384.767 174.914 383.808 172.697C382.863 170.479 382.386 168.063 382.386 165.434C382.386 162.804 382.855 160.402 383.808 158.214C384.76 156.018 386.053 154.127 387.681 152.55C389.308 150.965 391.241 149.735 393.48 148.854C395.718 147.973 398.127 147.532 400.707 147.532C403.287 147.532 405.674 147.973 407.892 148.854C410.109 149.735 412.042 150.972 413.691 152.55C415.339 154.134 416.633 156.018 417.556 158.214C418.48 160.402 418.949 162.811 418.949 165.434C418.949 168.056 418.48 170.408 417.556 172.618C416.633 174.836 415.339 176.747 413.691 178.353C412.035 179.959 410.109 181.21 407.892 182.113C405.674 183.022 403.28 183.47 400.707 183.47"></path>
<path fill="#3B2A00" d="M423.227 182.461V178.865L428.991 177.508V154.717H423.227V151.121L434.079 148.549H439.437V151.875C442.195 148.982 445.606 147.532 449.678 147.532C451.44 147.532 453.032 147.788 454.461 148.307C455.882 148.826 457.083 149.558 458.056 150.51C459.03 151.462 459.783 152.592 460.33 153.9C460.871 155.215 461.148 156.636 461.148 158.178V177.508L466.911 178.865V182.461H446.295V178.865L450.708 177.508V160.075C450.708 158.675 450.623 157.545 450.467 156.686C450.31 155.826 450.047 155.158 449.692 154.689C449.33 154.213 448.839 153.893 448.228 153.736C447.624 153.58 446.864 153.502 445.961 153.502C444.248 153.502 442.074 154.497 439.452 156.487V177.515L443.865 178.872V182.468H423.249L423.227 182.461Z"></path>
<path fill="#3B2A00" d="M300.029 101.056C299.916 96.9342 303 95.456 303.462 87.447C303.668 83.7943 300.491 74.1934 290.435 67.7833C290.158 67.6128 289.895 67.4422 289.632 67.2717C284.565 59.0921 289.696 58.8718 296.092 55.2688C302.893 51.4384 300.136 46.7552 299.852 45.7816C299.567 44.808 298.587 41.6101 299.162 45.7816C299.731 49.9531 297.755 51.616 295.19 53.0942C293.633 53.9967 288.318 55.0911 285.752 56.1784C283.528 57.1236 282.803 59.9306 283.016 62.6311C277.779 58.5733 274.837 54.9774 273.522 50.9765C271.688 45.3694 271.994 32.4569 270.779 30.9148C270.289 30.3037 270.758 38.4122 270.779 40.736C270.786 41.4395 270.303 47.5938 272.3 54.1886C270.026 52.6536 265.371 51.4384 260.723 51.8861C255.408 52.3907 250.952 49.4272 250.497 45.5968C250.028 41.7664 249.687 45.0852 249.751 45.5968C249.808 46.1156 250.952 53.6556 260.212 54.4018C269.287 55.1267 273.394 59.3621 276.201 62.1479C276.649 62.7448 277.118 63.3275 277.644 63.889C286.854 73.9162 290.677 77.036 289.874 82.5151C289.071 88.0013 283.613 93.0256 280.174 97.2611C276.727 101.489 276.841 109.378 276.841 109.378H304.499C301.074 106.173 300.15 105.149 300.043 101.035"></path>
<path fill="#65A30D" d="M253.069 29.3585C253.567 28.9819 255.081 33.4518 256.225 35.7899C257.376 38.1279 258.996 40.3665 259.97 42.335C260.936 44.3035 261.199 47.5369 259.337 48.4465C257.475 49.3633 254.086 47.0679 252.494 43.8202C250.902 40.5797 249.737 31.8387 253.069 29.3514"></path>
<path fill="#65A30D" d="M255.187 28.591C254.583 28.7544 257.198 32.6843 258.35 35.0224C259.501 37.3604 260.268 40.0111 261.235 41.9867C262.208 43.9481 264.596 46.144 266.451 45.2273C268.313 44.3105 268.576 40.2243 266.984 36.9837C265.392 33.7432 259.195 27.4753 255.18 28.5839"></path>
<path fill="#65A30D" d="M325.08 36.3229C324.994 35.932 323.744 35.2782 322.514 35.463C321.285 35.6477 319.75 36.3015 319.871 36.8487C319.991 37.3959 321.747 38.0213 322.877 37.9147C324.014 37.8081 325.321 37.4101 325.08 36.3229Z" clip-rule="evenodd" fill-rule="evenodd"></path>
<path fill="#65A30D" d="M330.516 38.2203C330.31 37.7868 328.832 37.2254 327.624 37.6162C326.416 38.0071 325.03 38.9878 325.321 39.5919C325.605 40.1817 327.581 40.6507 328.718 40.3594C329.855 40.068 331.085 39.4142 330.509 38.2274" clip-rule="evenodd" fill-rule="evenodd"></path>
<path fill="#65A30D" d="M332.762 41.468C332.591 41.0558 331.07 40.4873 329.72 40.8142C328.37 41.1482 326.75 42.0294 326.984 42.5979C327.219 43.1664 329.294 43.6639 330.552 43.4293C331.817 43.1877 333.224 42.6192 332.762 41.4751" clip-rule="evenodd" fill-rule="evenodd"></path>
<path fill="#65A30D" d="M333.565 44.7654C333.458 44.3177 331.952 43.5715 330.481 43.7918C329.017 44.0121 327.176 44.7867 327.325 45.405C327.474 46.0161 329.571 46.7339 330.928 46.606C332.293 46.4781 333.863 46.0019 333.558 44.7654" clip-rule="evenodd" fill-rule="evenodd"></path>
<path fill="#65A30D" d="M331.021 48.077C330.957 47.6648 329.67 46.9044 328.313 47.0181C326.956 47.1318 325.208 47.7288 325.286 48.2973C325.357 48.8729 327.197 49.6404 328.448 49.5978C329.699 49.5552 331.177 49.214 331.021 48.0699" clip-rule="evenodd" fill-rule="evenodd"></path>
<path fill="#65A30D" d="M327.119 36.3939C326.65 36.4081 326.266 36.2944 326.266 36.131C326.252 35.9675 326.622 35.8254 327.091 35.8112C327.56 35.797 327.944 36.0741 327.944 36.0741C327.944 36.0741 327.588 36.3726 327.119 36.3868" clip-rule="evenodd" fill-rule="evenodd"></path>
<path fill="#65A30D" d="M333.032 38.0426C332.584 38.1279 332.179 38.071 332.129 37.9147C332.065 37.7655 332.399 37.5665 332.847 37.4741C333.302 37.3888 333.757 37.5949 333.757 37.5949C333.757 37.5949 333.487 37.9431 333.032 38.0355" clip-rule="evenodd" fill-rule="evenodd"></path>
<path fill="#65A30D" d="M335.036 41.404C334.581 41.4751 334.176 41.404 334.133 41.2477C334.091 41.0913 334.432 40.9065 334.887 40.8355C335.341 40.7644 335.789 40.9918 335.789 40.9918C335.789 40.9918 335.498 41.3329 335.036 41.404Z" clip-rule="evenodd" fill-rule="evenodd"></path>
<path fill="#65A30D" d="M335.548 44.9501C335.086 44.9715 334.695 44.872 334.673 44.7085C334.659 44.5522 335.029 44.3958 335.491 44.3745C335.953 44.3532 336.358 44.6161 336.358 44.6161C336.358 44.6161 336.009 44.9288 335.548 44.9501Z" clip-rule="evenodd" fill-rule="evenodd"></path>
<path fill="#65A30D" d="M334.013 47.9207C333.543 47.942 333.16 47.8354 333.138 47.672C333.124 47.5156 333.494 47.3593 333.949 47.3379C334.418 47.3095 334.823 47.5796 334.823 47.5796C334.823 47.5796 334.474 47.8923 334.013 47.9207Z" clip-rule="evenodd" fill-rule="evenodd"></path>
<path fill="#65A30D" d="M324.319 43.8487C323.843 41.9868 321.612 40.1959 320.517 39.2508C319.43 38.3056 317.803 36.2518 315.479 36.465C313.162 36.6853 313.418 37.9005 311.13 38.7675C309.047 39.5563 302.794 40.5939 301.649 42.6192C306.553 42.136 314.406 43.607 316.914 45.071C313.389 44.4385 307.079 44.9999 303.597 45.5826C306.254 47.1034 310.661 48.2973 312.473 48.5176C315.152 48.8303 317.227 50.3582 319.65 50.2871C322.074 50.2161 325.151 47.0679 324.319 43.8344" clip-rule="evenodd" fill-rule="evenodd"></path>
<path fill="#65A30D" d="M290.507 29.5859C289.988 29.2661 289.455 29.7991 289.242 30.3605C289.114 30.7087 289.114 30.993 288.964 31.2488C288.716 31.6894 288.339 31.6326 287.799 32.0163C287.301 32.3788 286.861 33.0326 286.662 33.6437C285.937 35.8538 286.378 38.1208 287.515 39.3289C288.133 39.9827 289.128 40.4304 289.782 39.6842C290.329 39.0304 290.549 37.6376 290.663 36.7564C290.734 36.2518 290.883 35.662 290.912 35.1148C290.933 34.5533 290.841 33.9635 290.791 33.4518C290.72 32.8478 290.528 32.2864 290.592 31.86C290.67 31.4265 290.933 31.1635 290.99 30.6874C291.018 30.325 290.89 29.8133 290.514 29.5717" clip-rule="evenodd" fill-rule="evenodd"></path>
<path fill="#65A30D" d="M285.226 28.6692C284.551 28.2214 284.175 29.1737 283.798 29.6143C283.471 29.9839 283.002 30.0976 282.554 30.5808C282.348 30.794 282.178 31.1209 281.979 31.4123C281.574 32.0021 281.076 32.7696 280.792 33.7077C280.38 35.0508 280.543 36.4721 280.998 37.3888C281.268 37.9431 281.844 38.5472 282.604 38.4264C283.784 38.2416 284.871 37.1756 285.411 35.4843C285.695 34.5675 285.759 33.6721 285.688 32.8762C285.624 32.0234 285.376 31.2701 285.376 30.6448C285.376 29.8702 285.809 29.0813 285.219 28.6834" clip-rule="evenodd" fill-rule="evenodd"></path>
<path fill="#65A30D" d="M292.759 37.1543C292.347 36.8559 291.921 37.467 291.757 38.1706C291.651 38.6254 291.707 39.3218 291.935 39.4995C292.134 39.6629 292.475 39.5705 292.61 39.4426C293.051 39.0162 293.107 37.4244 292.759 37.1614" clip-rule="evenodd" fill-rule="evenodd"></path>
<path fill="#65A30D" d="M278.873 33.1605C278.347 32.7909 277.693 33.7148 277.58 34.4609C277.53 34.731 277.672 35.0721 277.608 35.3279C277.502 35.7117 277.239 35.9107 277.047 36.2589C276.869 36.6 276.741 37.0122 276.592 37.3888C275.988 39.0091 274.787 41.1979 275.498 42.4629C275.618 42.6832 275.938 42.9816 276.308 43.0243C276.947 43.074 277.956 42.2426 278.411 41.7593C278.93 41.2263 279.555 40.3451 279.74 39.3644C279.989 37.9289 279.953 36.202 279.598 35.4345C279.456 35.1147 279.051 34.8376 279.008 34.4538C278.958 34.0346 279.285 33.4518 278.88 33.1676" clip-rule="evenodd" fill-rule="evenodd"></path>
<path fill="#65A30D" d="M292.617 43.5004C292.845 42.1004 292.646 41.1624 292.155 40.3025C291.906 39.8548 291.651 39.2578 290.94 39.3644C290.258 39.471 289.448 40.5583 289.107 41.4466C288.375 43.3796 288.879 44.8862 288.886 46.272C288.517 46.073 288.367 45.6821 288.183 45.405C287.77 44.8222 287.294 44.3248 287.11 43.5644C286.918 42.7756 287.017 41.9228 286.854 41.1624C286.648 40.1746 286.292 38.8172 285.127 38.4335C284.516 38.2345 283.926 38.4761 283.535 38.7462C282.696 39.3076 282.313 40.3025 281.559 40.871C281.034 41.2619 280.358 41.5461 279.683 41.8233C278.795 42.1786 277.843 42.4131 277.224 43.4649C276.748 44.2821 276.365 45.6182 276.194 46.6344C276.045 47.5014 276.137 48.5887 276.35 49.2638C276.635 50.1237 277.715 51.0049 279.065 50.813C279.385 50.7633 279.662 50.6496 279.932 50.5501C281.325 48.6029 282.419 44.1826 284.011 42.5908C282.768 46.0232 282.853 50.0242 283.443 51.1541C283.741 51.5237 284.004 51.9572 284.288 52.3764C284.672 52.9592 284.985 53.6485 285.674 54.0322C286.15 54.3023 286.854 54.3023 287.245 54.0962C288.375 53.4851 289.27 50.5287 289.284 48.9085C289.298 48.3044 289.078 47.8709 289.163 47.1816C289.59 47.3379 289.618 47.7856 289.974 47.9846C290.542 48.2973 291.238 48.0344 291.551 47.6648C291.779 47.4019 292.006 46.876 292.184 46.3075C292.482 45.3552 292.454 44.5238 292.631 43.4933" clip-rule="evenodd" fill-rule="evenodd"></path>
<path fill="#65A30D" d="M236.76 53.3074C241.457 51.1186 245.188 50.145 247.207 49.7612C246.254 49.1998 244.847 49.0648 243.774 49.548C242.019 50.3369 239.695 50.1663 236.49 49.2709C234.749 48.7805 233.15 49.1998 231.38 48.3826C229.732 47.6222 228.367 46.5065 226.79 46.4354C225.205 46.3643 224.729 47.075 225.255 47.9846C225.773 48.8942 227.138 48.347 228.907 48.7592C230.67 49.1714 233.548 49.9744 233.647 50.5501C233.754 51.1257 224.487 53.6769 222.782 54.1175C221.076 54.551 216.777 53.8262 215.412 54.3023C214.055 54.7713 213.387 55.2901 213.6 56.1287C213.82 56.9743 215.036 57.7063 218.106 56.5764C221.168 55.4393 226.441 54.1246 227.6 54.0891C228.758 54.0536 231.388 53.748 231.643 54.3876C231.899 55.0343 228.573 55.8231 227.365 56.3703C226.164 56.9104 223.563 57.8698 222.476 57.8271C221.396 57.7774 220.969 57.8271 220.387 58.1256C219.804 58.4027 219.051 59.3195 219.541 59.9591C220.031 60.5915 221.033 60.7195 222.831 59.5114C224.622 58.2961 232.361 55.1053 232.773 55.5104C233.193 55.9155 232.148 58.2606 231.004 59.4971C229.86 60.7266 226.868 61.8565 227.728 62.9509C228.595 64.0453 230.066 62.0271 230.734 61.1245C231.409 60.2149 234.251 56.8109 235.218 56.2779C236.192 55.752 240.548 54.1531 240.953 54.949C241.358 55.7449 237.357 59.0352 236.781 59.4758C236.199 59.9093 233.79 60.7621 234.081 61.6717C234.365 62.5885 235.445 62.7093 237.179 60.7337C238.913 58.7581 242.289 55.6383 242.722 55.3612C243.113 55.1053 247.37 54.7287 248.152 52.1988C246.07 52.1277 241.777 52.0922 236.753 53.3074" clip-rule="evenodd" fill-rule="evenodd"></path>
<path fill="#65A30D" d="M257.44 71.6564C257.028 70.8605 251.62 68.0747 249.687 68.1316C248.628 68.16 248.287 68.8564 247.022 69.0412C245.615 69.2402 244.009 69.6595 244.009 69.6595C245.096 68.7498 245.75 67.4635 246.304 67.158C246.866 66.8524 248.017 66.3834 248.415 65.694C248.813 65.0047 249.786 59.7814 249.111 58.5804C248.45 57.3723 246.162 57.2941 245.345 57.5855C247.079 56.2495 250.241 55.8586 251.627 55.9652C253.02 56.0647 257.611 57.3226 259.515 57.4576C260.51 57.5216 261.896 57.4079 263.09 57.4221C261.121 58.4596 257.959 60.3926 254.363 63.555C258.954 60.9895 263.239 59.8454 265.378 59.3408C265.065 60.1652 264.362 61.153 263.616 62.0271C262.372 63.491 262.628 66.9519 261.555 68.9488C260.474 70.9386 258.826 73.4827 255.933 74.2787C257.056 73.433 257.852 72.4523 257.447 71.6564" clip-rule="evenodd" fill-rule="evenodd"></path>
<path fill="#65A30D" d="M323.822 62.9154C323.118 62.4961 322.678 61.9844 322.82 61.7641C322.962 61.5367 323.644 61.6931 324.341 62.1052C325.037 62.5174 325.335 63.2565 325.335 63.2565C325.335 63.2565 324.518 63.3204 323.822 62.9083" clip-rule="evenodd" fill-rule="evenodd"></path>
<path fill="#65A30D" d="M316.893 68.2666C316.374 67.6981 316.168 67.1224 316.424 66.9945C316.673 66.8595 317.305 67.2219 317.81 67.7904C318.328 68.3661 318.279 69.0696 318.279 69.0696C318.279 69.0696 317.405 68.8351 316.893 68.2595" clip-rule="evenodd" fill-rule="evenodd"></path>
<path fill="#65A30D" d="M308.664 67.762C308.308 67.1295 308.251 66.5752 308.557 66.5113C308.855 66.4473 309.403 66.9021 309.765 67.5275C310.128 68.1529 309.879 68.7782 309.879 68.7782C309.879 68.7782 309.04 68.3874 308.671 67.762" clip-rule="evenodd" fill-rule="evenodd"></path>
<path fill="#65A30D" d="M319.181 52.8526C318.634 53.1581 317.994 53.2008 317.76 52.945C317.525 52.6891 317.767 52.2343 318.321 51.9287C318.869 51.616 319.743 51.8363 319.743 51.8363C319.743 51.8363 319.743 52.547 319.188 52.8526" clip-rule="evenodd" fill-rule="evenodd"></path>
<path fill="#65A30D" d="M313.262 64.1306C314.178 65.3529 315.159 66.5255 315.919 66.1844C316.68 65.8504 315.621 64.7346 314.327 62.9722C313.034 61.2098 312.288 59.689 312.743 59.3195C313.198 58.95 315.784 59.5114 317.099 59.9804C318.428 60.4565 322.237 62.1834 321.939 61.2738C321.647 60.357 319.458 60.023 318.065 59.4829C316.658 58.9357 313.681 57.0596 313.148 56.0505C312.608 55.0414 313.596 54.5723 315.109 54.4373C316.609 54.3023 317.433 53.6911 316.872 52.9876C316.31 52.2841 313.915 52.9876 311.677 52.2698C309.659 51.6303 306.453 50.2516 303.746 51.3886C305.103 52.1632 307.676 53.9754 310.561 57.4078C307.136 55.0556 303.831 54.2312 302.246 53.883C302.389 55.6952 303.483 58.154 304.613 59.4758C306.311 61.4728 307.512 62.6098 307.42 63.9529C307.335 65.2961 309.232 67.1437 308.855 65.1824C308.486 63.221 308.465 61.1245 309.46 60.8758C310.44 60.6271 312.331 62.8941 313.254 64.1164" clip-rule="evenodd" fill-rule="evenodd"></path>
<path fill="#65A30D" d="M252.089 7.41362C253.084 7.32124 254.036 8.22376 254.221 9.42476C254.299 9.908 254.228 10.3628 254.072 10.7466C256.601 13.8024 261.597 18.4074 263.438 17.7465C264.745 17.2774 264.056 14.8683 263.289 12.5303C262.635 10.5192 261.818 6.38318 261.15 5.28878C260.588 4.90503 260.162 4.24412 260.034 3.46951C259.835 2.18324 260.538 1.06041 261.597 0.968028C262.67 0.875643 263.694 1.84213 263.9 3.1213C264.049 4.07357 263.701 4.92635 263.09 5.35984C263.701 7.64103 264.532 11.4501 264.902 12.6511C265.591 14.9252 266.458 16.7729 267.368 16.9434C269.528 17.3414 270.509 14.2288 270.907 12.4877C271.248 11.0237 271.113 9.43897 270.978 8.78517C270.694 8.42274 270.48 7.97503 270.402 7.47047C270.203 6.1842 270.907 5.06848 271.966 4.97609C273.032 4.88371 274.055 5.84308 274.261 7.12936C274.46 8.34457 273.835 9.40344 272.861 9.59531C272.676 11.5922 271.525 16.2612 271.198 17.5404C271.227 17.6967 270.722 21.0084 270.772 21.4347C270.985 23.0906 270.587 24.924 269.798 26.0682C268.938 24.2489 267.51 21.8327 265.207 19.0896C266.522 22.1667 266.927 25.0164 267.027 27.1128C266.003 26.8925 265.47 26.2672 264.802 25.8337C263.935 25.2722 259.721 25.2865 257.22 24.8388C257.198 24.8885 257.191 24.9382 257.163 24.9809C256.665 25.926 255.557 26.1392 254.69 25.4286C253.83 24.725 253.531 23.3819 254.036 22.4296C254.526 21.4774 255.628 21.2784 256.495 21.989C256.857 22.2733 257.113 22.6855 257.262 23.119C259.188 23.2966 261.526 23.1758 261.491 21.5484C261.448 19.9211 260.716 19.3241 259.416 18.0947C258.257 17.0003 254.477 14.3069 252.871 11.7415C252.835 11.7486 252.792 11.7628 252.757 11.7628C251.769 11.8481 250.81 10.9527 250.618 9.75166C250.433 8.55777 251.08 7.51311 252.075 7.42783"></path>
<path fill="#65A30D" d="M275.739 21.9109C276.144 17.917 278.319 13.4186 279.484 9.38923C279.776 8.40854 280.742 3.63297 282.405 4.30098C283.606 4.79133 281.574 8.90599 281.211 9.93643C281.197 9.93643 281.41 10.0999 281.41 10.0928C283.734 9.09787 284.317 -0.865443 286.662 1.60051C286.307 3.78221 285.496 6.80247 284.16 9.28263C285.98 10.242 285.681 8.26641 286.413 6.98013C286.96 6.02075 288.531 0.570069 289.263 0.186319C291.864 -1.17813 289.17 5.36695 288.282 6.32633C287.948 7.64814 286.051 10.0928 287.472 10.8461C288.367 9.41766 289.512 6.24816 290.549 5.15376C294.493 0.989352 290.087 9.68771 289.369 11.2085C288.097 13.9019 283.571 19.6155 286.69 21.0226L286.896 21.0652C287.202 21.3353 287.621 21.584 288.026 21.7048C289.597 22.1596 299.596 18.1231 296.064 22.3941C294.522 24.256 292.29 23.2967 290.535 23.5454C288.51 23.8367 286.69 25.0804 284.736 25.6276C283.379 26.0042 281.879 26.2174 280.501 26.189C280.6 24.2063 280.863 19.3383 282.974 13.7455C279.548 18.9759 278.042 23.1474 277.516 25.0164C277.466 25.2083 277.473 25.386 277.544 25.5352C276.301 24.9027 275.554 23.7586 275.739 21.9109Z" clip-rule="evenodd" fill-rule="evenodd"></path>
<path fill="#65A30D" d="M242.076 23.588C245.473 22.4581 239.986 19.85 240.327 20.2835C240.924 21.051 241.251 23.8652 242.076 23.588Z" clip-rule="evenodd" fill-rule="evenodd"></path>
<path fill="#65A30D" d="M222.796 39.4639C222.327 39.1654 225.418 44.3887 226.25 40.9136C226.449 40.0751 223.613 39.9969 222.796 39.4639Z" clip-rule="evenodd" fill-rule="evenodd"></path>
<path fill="#65A30D" d="M227.479 27.0347C228.396 27.8803 228.31 28.0296 229.071 27.1981C229.831 26.3595 229.689 26.4733 228.765 25.6276C227.849 24.789 225.738 24.1494 225.738 24.1494C225.738 24.1494 226.562 26.189 227.479 27.0347Z" clip-rule="evenodd" fill-rule="evenodd"></path>
<path fill="#65A30D" d="M241.571 38.8386C243.945 41.2832 246.468 42.6192 248.045 43.3228C248.507 42.2426 248.528 40.7147 247.825 39.933C247.669 39.7553 247.427 39.599 247.128 39.4568C247.107 39.3645 247.086 39.265 247.05 39.1513C246.205 36.2376 244.819 29.6925 244.798 27.7382C244.769 25.7839 243.796 23.0906 242.253 24.4408C240.711 25.7839 244.428 31.924 243.568 34.2762C243 35.8254 243.156 36.9909 243.227 37.9645C242.573 37.6589 241.983 37.2894 241.557 36.8345C239.979 35.1574 237.968 34.2762 236.319 32.4641C234.671 30.6661 231.025 26.253 229.568 27.8519C228.104 29.458 233.569 32.6488 234.82 33.9138C236.071 35.1787 237.791 37.0904 239.574 38.6964C240.121 39.1939 240.605 39.9401 241.045 40.7573C239.994 40.8142 238.721 40.6436 237.037 41.4396C234.777 42.5126 228.332 39.3645 227.124 41.0203C225.916 42.669 228.687 43.4081 230.634 43.2588C232.581 43.1167 239.226 43.8984 242.204 44.4882C242.516 44.5451 242.758 44.5451 242.95 44.5096C243.199 44.8933 243.44 45.206 243.703 45.3979C244.35 45.874 245.302 45.5684 246.098 45.1349C244.918 43.9553 243.241 41.937 241.585 38.8457" clip-rule="evenodd" fill-rule="evenodd"></path>
<path fill="#65A30D" d="M313.667 17.2917C314.2 16.5028 314.178 15.4866 314.178 15.4866C314.178 15.4866 313.29 15.7566 312.764 16.5455C312.217 17.3414 311.997 18.1586 312.252 18.3576C312.501 18.5637 313.134 18.0876 313.667 17.2917Z" clip-rule="evenodd" fill-rule="evenodd"></path>
<path fill="#65A30D" d="M296.938 39.5563C296.398 40.1177 296.341 40.8923 296.341 40.8923C296.341 40.8923 297.165 40.7573 297.705 40.203C298.246 39.6416 298.508 39.0375 298.295 38.8599C298.082 38.6822 297.478 38.9949 296.938 39.5563Z" clip-rule="evenodd" fill-rule="evenodd"></path>
<path fill="#65A30D" d="M318.783 26.7717C318.137 27.1697 317.717 27.6814 317.852 27.9159C317.98 28.1504 318.606 28.0154 319.252 27.6174C319.899 27.2265 320.19 26.4733 320.19 26.4733C320.19 26.4733 319.437 26.3738 318.783 26.7717Z" clip-rule="evenodd" fill-rule="evenodd"></path>
<path fill="#65A30D" d="M301.976 16.4957C302.211 16.6094 302.609 16.0906 302.879 15.3445C303.142 14.5983 302.929 13.781 302.929 13.781C302.929 13.781 302.289 14.1932 302.033 14.9323C301.763 15.6785 301.742 16.3749 301.984 16.4886" clip-rule="evenodd" fill-rule="evenodd"></path>
<path fill="#65A30D" d="M312.146 30.0905C310.931 30.8367 307.505 30.6803 305.785 30.062C307.598 27.1342 309.431 24.32 309.701 24.0499C310.213 23.5454 313.077 20.7383 311.769 19.1109C311.073 18.2297 309.403 19.0683 308.145 22.4012C306.894 25.7271 304.506 28.456 304.265 28.9676C304.25 29.0032 304.229 29.0458 304.201 29.0956C303.071 27.6743 301.742 24.1281 302.026 22.5931C302.325 20.9444 303.618 18.1018 301.848 17.178C300.967 16.7232 300.065 19.5658 300.449 21.1079C300.818 22.586 300.96 27.2905 302.524 31.9168C301.728 33.1818 300.868 34.4183 300.427 34.6884C299.539 35.2498 297.663 37.9147 298.729 38.5614C299.802 39.2081 300.882 38.7888 302.168 36.2021C302.552 35.4346 303.32 34.0985 304.229 32.592C308.884 32.6133 312.594 31.3057 313.951 31.2062C315.443 31.0996 317.668 29.2803 316.985 28.5413C315.6 27.0276 313.496 29.2448 312.139 30.0834" clip-rule="evenodd" fill-rule="evenodd"></path>
<path fill="#3B2A00" d="M178.572 80.9232C176.568 87.2907 173.654 96.8205 169.852 109.52L164.828 109.477C162.924 102.257 160.756 94.9586 158.319 87.5749C156.442 93.6012 154.268 100.921 151.809 109.52H146.863C144.83 102.2 142.258 93.2459 139.138 82.6714C138.96 82.4796 138.655 82.3801 138.221 82.3801H137.838V80.9232H144.916C147.353 90.7942 149.336 98.3413 150.857 103.572C152.811 97.6733 154.751 90.7729 156.684 82.8775C156.506 82.5435 156.137 82.3801 155.583 82.3801H155.199V80.9232H162.32C163.791 86.1323 164.857 89.849 165.51 92.0662C166.704 96.1667 167.863 99.8834 168.978 103.209C170.854 97.2256 172.695 90.4957 174.493 83.0126C174.315 82.5933 173.932 82.3801 173.349 82.3801H172.965V80.9232H178.572Z"></path>
<path fill="#3B2A00" d="M186.254 83.0481C186.254 83.9577 185.956 84.7394 185.359 85.3932C184.762 86.047 184.044 86.3668 183.213 86.3668C182.381 86.3668 181.656 86.0399 181.059 85.3932C180.462 84.7394 180.164 83.9577 180.164 83.0481C180.164 82.1385 180.455 81.3567 181.059 80.7172C181.649 80.0847 182.374 79.7649 183.213 79.7649C184.051 79.7649 184.762 80.0847 185.359 80.7172C185.956 81.3567 186.254 82.1313 186.254 83.0481ZM187.512 109.236H180.541C180.69 105.299 180.775 101.852 180.775 98.8885C180.775 96.4225 180.732 94.0134 180.661 91.6541C180.555 91.0145 180.143 90.6947 179.404 90.6947H179.02V89.2378H186.027C185.899 92.8408 185.835 96.053 185.835 98.8814C185.835 101.461 185.878 104.204 185.956 107.111C186.077 107.523 186.482 107.736 187.171 107.736H187.512V109.236Z"></path>
<path fill="#3B2A00" d="M197.333 109.228H190.291C190.419 102.882 190.483 97.7159 190.483 93.7291C190.483 84.8318 190.412 80.305 190.255 80.1344C190.077 79.8573 189.722 79.7151 189.189 79.7151H188.805V78.2157H195.919C195.798 82.3232 195.741 87.447 195.77 93.6012C195.741 98.1139 195.777 102.705 195.884 107.359C196.111 107.608 196.48 107.729 196.992 107.729H197.333V109.228Z"></path>
<path fill="#3B2A00" d="M213.664 98.6113C213.664 93.4164 212.193 90.8226 209.265 90.8226C206.131 90.8226 204.561 93.6723 204.561 99.3646C204.561 104.666 205.982 107.324 208.846 107.324C212.058 107.324 213.664 104.424 213.664 98.6184M220.593 109.193L214.197 109.236C213.941 107.878 213.82 106.826 213.82 106.08C213.131 107.189 212.179 108.056 210.978 108.681C209.77 109.307 208.49 109.619 207.147 109.619C204.71 109.619 202.763 108.766 201.284 107.075C199.685 105.242 198.882 102.705 198.882 99.457C198.882 96.2093 199.735 93.388 201.434 91.4195C203.033 89.5576 205.079 88.6267 207.567 88.6267C210.359 88.6267 212.385 89.586 213.657 91.4977V85.5495C213.657 83.6379 213.628 81.7831 213.579 79.9781C213.401 79.6441 213.017 79.4735 212.442 79.4735H212.058V78.2299H219.022C218.951 81.6978 218.909 86.1394 218.909 91.5759C218.909 102.022 219.001 107.366 219.179 107.615C219.356 107.871 219.697 107.992 220.202 107.992H220.579V109.193H220.593Z"></path>
<path fill="#3B2A00" d="M230.187 109.228H223.144C223.272 102.882 223.336 97.7159 223.336 93.7291C223.336 84.8318 223.265 80.305 223.109 80.1344C222.924 79.8573 222.568 79.7151 222.043 79.7151H221.659V78.2157H228.772C228.644 82.3232 228.595 87.447 228.623 93.6012C228.595 98.1139 228.63 102.705 228.737 107.359C228.964 107.608 229.327 107.729 229.838 107.729H230.179V109.228H230.187Z"></path>
<path fill="#3B2A00" d="M238.828 83.0481C238.828 83.9577 238.53 84.7394 237.926 85.3932C237.329 86.047 236.618 86.3668 235.779 86.3668C234.941 86.3668 234.223 86.0399 233.626 85.3932C233.029 84.7394 232.731 83.9577 232.731 83.0481C232.731 82.1385 233.029 81.3567 233.626 80.7172C234.216 80.0847 234.941 79.7649 235.779 79.7649C236.618 79.7649 237.329 80.0847 237.926 80.7172C238.522 81.3567 238.828 82.1313 238.828 83.0481ZM240.086 109.236H233.114C233.271 105.299 233.349 101.852 233.349 98.8885C233.349 96.4225 233.306 94.0134 233.228 91.6541C233.129 91.0145 232.709 90.6947 231.97 90.6947H231.587V89.2378H238.594C238.473 92.8408 238.402 96.053 238.402 98.8814C238.402 101.461 238.444 104.204 238.515 107.111C238.643 107.523 239.048 107.736 239.731 107.736H240.079V109.228L240.086 109.236Z"></path>
<path fill="#3B2A00" d="M254.192 83.1263H252.707V82.7496C252.707 81.4776 252.167 80.8451 251.073 80.8451C250.085 80.8451 249.317 81.2644 248.791 82.0958C248.337 82.8207 248.109 83.7516 248.109 84.8887C248.109 86.9496 248.145 88.4561 248.223 89.4013C249.694 89.4013 250.973 89.3444 252.067 89.2378V91.6114C251.79 91.583 251.2 91.5546 250.319 91.5261C249.559 91.4977 248.87 91.4835 248.265 91.4835V96.2662C248.265 100.807 248.301 104.282 248.379 106.699C248.479 107.423 248.955 107.779 249.786 107.779H250.134V109.228H242.865C242.992 107.317 243.056 102.968 243.056 96.1809V91.4835C242.928 91.4835 242.097 91.5261 240.541 91.6114V89.2378C241.457 89.3516 242.339 89.4013 243.17 89.4013C243.17 87.0704 243.923 84.6897 245.451 82.2664C247.15 79.5659 249.09 78.2157 251.271 78.2157C252.465 78.2157 253.446 78.3649 254.199 78.6776V83.1191L254.192 83.1263Z"></path>
<path fill="#3B2A00" d="M264.184 96.3444C264.184 94.3759 264.042 93.0185 263.765 92.2652C263.303 91.1353 262.372 90.5597 260.993 90.5597C258.733 90.5597 257.511 92.4855 257.333 96.3444H264.191H264.184ZM269.663 97.5453V98.1707C269.642 98.4195 269.628 98.6184 269.628 98.7535H257.333V99.3717C257.333 104.78 259.096 107.48 262.628 107.48C263.9 107.48 265.037 107.146 266.039 106.464C267.041 105.789 267.545 105.028 267.545 104.197V103.785H268.953V107.608C267.204 109.001 264.625 109.69 261.221 109.69C258.478 109.69 256.182 108.703 254.313 106.72C252.451 104.737 251.513 102.25 251.513 99.2651C251.513 96.2804 252.416 93.6226 254.221 91.6541C256.019 89.6927 258.343 88.7049 261.178 88.7049C263.765 88.7049 265.833 89.5363 267.368 91.1779C268.903 92.8266 269.67 94.9586 269.67 97.5596"></path>
<path fill="#3B2A00" d="M320.155 94.7667H318.67V94.3474C318.67 93.1891 318.122 92.6063 317.035 92.6063C315.813 92.6063 314.839 93.1109 314.1 94.1413C313.19 95.4134 312.736 97.3393 312.736 99.9189C312.736 103.159 312.757 105.583 312.814 107.196C312.942 107.58 313.34 107.779 314.029 107.779H314.413V109.271H307.519C307.591 107.914 307.662 105.888 307.711 103.202V95.4276C307.711 93.5728 307.669 92.0876 307.598 90.9789C307.299 90.7871 306.915 90.6876 306.446 90.6876H306.077V89.2805H312.437C312.615 91.0855 312.693 92.4358 312.665 93.3525C314.271 90.3322 315.976 88.8257 317.803 88.8257C318.62 88.8257 319.402 88.9749 320.162 89.2876V94.7738L320.155 94.7667Z"></path>
<path fill="#3B2A00" d="M333.778 96.3444C333.778 94.3759 333.636 93.0185 333.352 92.2652C332.89 91.1353 331.966 90.5597 330.587 90.5597C328.327 90.5597 327.105 92.4855 326.927 96.3444H333.778ZM339.257 97.5453V98.1707C339.236 98.4195 339.229 98.6184 339.229 98.7535H326.927V99.3717C326.927 104.78 328.69 107.48 332.215 107.48C333.487 107.48 334.624 107.146 335.626 106.464C336.621 105.789 337.125 105.028 337.125 104.197V103.785H338.539V107.608C336.784 109.001 334.211 109.69 330.807 109.69C328.071 109.69 325.769 108.703 323.9 106.72C322.038 104.737 321.1 102.25 321.1 99.2651C321.1 96.2804 322.002 93.6226 323.8 91.6541C325.605 89.6927 327.922 88.7049 330.765 88.7049C333.352 88.7049 335.412 89.5363 336.955 91.1779C338.49 92.8266 339.257 94.9586 339.257 97.5596"></path>
<path fill="#3B2A00" d="M353.683 96.3444C353.683 94.3759 353.548 93.0185 353.264 92.2652C352.802 91.1353 351.878 90.5597 350.5 90.5597C348.233 90.5597 347.017 92.4855 346.84 96.3444H353.69H353.683ZM359.169 97.5453V98.1707C359.148 98.4195 359.134 98.6184 359.134 98.7535H346.84V99.3717C346.84 104.78 348.602 107.48 352.134 107.48C353.406 107.48 354.543 107.146 355.545 106.464C356.547 105.789 357.045 105.028 357.045 104.197V103.785H358.452V107.608C356.704 109.001 354.124 109.69 350.727 109.69C347.984 109.69 345.681 108.703 343.819 106.72C341.958 104.737 341.02 102.25 341.02 99.2651C341.02 96.2804 341.922 93.6226 343.727 91.6541C345.525 89.6927 347.849 88.7049 350.684 88.7049C353.271 88.7049 355.339 89.5363 356.874 91.1779C358.409 92.8266 359.177 94.9586 359.177 97.5596"></path>
<path fill="#65A30D" d="M483.256 218.882H13.744C6.16133 218.882 0 212.713 0 205.138V107.288C0 99.7057 6.16844 93.5444 13.744 93.5444H123.596V98.9809H13.744C9.16028 98.9809 5.43647 102.705 5.43647 107.288V205.138C5.43647 209.721 9.16028 213.445 13.744 213.445H483.256C487.833 213.445 491.564 209.721 491.564 205.138V107.288C491.564 102.705 487.84 98.9809 483.256 98.9809H373.397V93.5444H483.256C490.839 93.5444 497 99.7057 497 107.288V205.138C497 212.72 490.832 218.882 483.256 218.882Z"></path>
</svg>
