<svg fill="#7db00e" role="img" viewBox="0 0 30 26" xmlns="http://www.w3.org/2000/svg"><title>Jobber</title><path fill-rule="evenodd" clip-rule="evenodd" d="M9.21796 22.5204H18.3899C21.3868 22.5204 23.8649 20.2957 24.3055 17.3925C24.3199 17.2961 24.243 17.2061 24.1455 17.2061H22.6143C22.5405 17.2061 22.4805 17.2581 22.4655 17.3304C22.0718 19.2443 20.4018 20.6851 18.3905 20.6851H11.1442C10.9711 20.6851 10.8505 20.5107 10.9117 20.3471L11.3323 19.2037C11.3698 19.1054 11.4623 19.0407 11.5661 19.0407H18.038C19.1674 19.0407 20.1418 18.3863 20.6193 17.4337C20.6711 17.3297 20.588 17.2054 20.4736 17.2054H9.12733C9.03983 17.2054 8.96983 17.2765 8.96983 17.364V22.2692C8.96983 22.4075 9.08233 22.5197 9.21859 22.5197L9.21796 22.5204ZM20.9343 8.63475V3.73014C20.9343 3.59189 20.823 3.47965 20.6861 3.47965H11.5148C8.51733 3.47965 6.03857 5.70429 5.59856 8.60748C5.58419 8.70387 5.66231 8.79392 5.75919 8.79392H7.29045C7.36357 8.79392 7.4242 8.74129 7.4392 8.66963C7.83295 6.75573 9.50296 5.31491 11.5142 5.31491H18.7599C18.933 5.31491 19.0536 5.4893 18.9924 5.65292L18.5718 6.79631C18.5355 6.89461 18.443 6.95929 18.3393 6.95929H11.8661C10.7367 6.95929 9.76234 7.61375 9.28483 8.56626C9.23296 8.67026 9.31609 8.79456 9.43046 8.79456H20.7774C20.8636 8.79456 20.9336 8.72353 20.9336 8.63602L20.9343 8.63475ZM27.6118 17.2061H26.1081C26.0293 17.2061 25.9656 17.2657 25.9568 17.3456C25.5268 21.1823 22.3043 24.1654 18.3899 24.1654H7.58983C7.45232 24.1654 7.3417 24.0525 7.3417 23.9142V17.3659C7.3417 17.2784 7.2717 17.2073 7.18545 17.2073H5.68169C5.59544 17.2073 5.52544 17.2784 5.52544 17.3659V22.2642C5.52544 22.4874 5.25794 22.599 5.10169 22.4417L3.96918 21.2964C3.92293 21.2495 3.89668 21.1854 3.89668 21.1189V17.3646C3.89668 17.2771 3.82668 17.2061 3.74043 17.2061H2.23605C2.14855 17.2061 2.0798 17.2771 2.0798 17.3646V21.6706C2.0798 21.871 2.1573 22.0619 2.2973 22.2033L5.83857 25.7799C5.97794 25.9207 6.16732 26 6.36482 26H18.3899C23.2943 26 27.3162 22.2172 27.7712 17.3843C27.7812 17.2892 27.7049 17.2067 27.6112 17.2067L27.6118 17.2061ZM2.29292 8.79392H3.79605C3.8748 8.79392 3.93856 8.73431 3.94793 8.65441C4.37731 4.81773 7.59983 1.83526 11.5148 1.83526H22.3149C22.4512 1.83526 22.5624 1.94751 22.5624 2.08576V8.63475C22.5624 8.72226 22.6312 8.79329 22.7187 8.79329H24.2218C24.308 8.79329 24.378 8.72226 24.378 8.63475V3.73712C24.378 3.51389 24.6468 3.40228 24.803 3.55955L25.9343 4.70358L26.0068 4.88114V8.63538C26.0068 8.7229 26.0781 8.79392 26.1643 8.79392H27.6674C27.7549 8.79392 27.8237 8.7229 27.8237 8.63538V4.32815C27.8237 4.12903 27.7462 3.93751 27.6062 3.79673L24.0643 0.220054C23.9255 0.0792702 23.7362 0 23.538 0H11.5155C6.60857 0 2.58792 3.78278 2.13167 8.61572C2.12292 8.71085 2.19855 8.79329 2.2923 8.79329L2.29292 8.79392Z"/></svg>