<svg fill="#2D2E31" role="img" viewBox="0 0 32 32" xmlns="http://www.w3.org/2000/svg"><title>ServiceTitan</title><path fill-rule="evenodd" clip-rule="evenodd" d="M8.65221 23.2068C8.65221 23.2068 9.61764 23.6242 9.61764 24.0415C9.5976 24.1333 9.54805 24.2148 9.47752 24.272C9.40699 24.3292 9.31989 24.3585 9.23119 24.3549C8.90353 24.3549 8.45898 23.7941 8.45898 23.5202C8.45898 23.2462 8.65221 23.2068 8.65221 23.2068Z"/><path d="M7.63486 18.0609C7.63269 18.0505 7.62835 18.0407 7.62216 18.0322C7.61596 18.0238 7.60807 18.0169 7.59905 18.0122C7.59006 18.0077 7.58026 18.0054 7.57034 18.0054C7.56041 18.0054 7.55061 18.0077 7.54162 18.0122C7.389 18.0836 7.25983 18.2015 7.17056 18.3511C7.08129 18.5006 7.03596 18.675 7.04033 18.8519C7.04033 20.7244 11.7121 20.9359 14.2409 24.2871C14.3756 24.4669 14.5473 24.6113 14.743 24.7094C14.9386 24.8075 15.1528 24.8566 15.3691 24.853C15.9224 24.8493 16.4748 24.8049 17.0223 24.7203C17.0521 24.715 17.0802 24.7018 17.1038 24.6819C17.1274 24.6619 17.1459 24.6359 17.1574 24.6063C17.1691 24.5765 17.1735 24.5441 17.1704 24.512C17.1672 24.4799 17.1565 24.4492 17.1392 24.4227C14.0585 19.6774 8.19425 20.7775 7.63486 18.0609Z"/><path d="M14.3316 12.1971C14.0316 11.8729 13.1831 12.1203 12.725 12.5391C12.2521 12.9694 12.4419 13.2563 12.4419 13.2563C12.5964 13.0269 12.7922 12.8323 13.018 12.6837C13.2438 12.5351 13.4951 12.4355 13.7573 12.3907C14.1708 12.3355 14.3316 12.1971 14.3316 12.1971Z"/><path d="M25.2655 11.8328C25.0858 11.4369 24.8054 11.1156 24.269 10.9722C23.7468 10.8338 23.286 10.9048 22.9705 11.2024L21.926 10.8187C21.8071 10.5412 21.7092 10.2881 21.6382 10.0693C21.5788 9.8859 21.4588 9.73151 21.3004 9.63475C20.6167 9.21307 18.7642 8.21123 18.0461 9.23459C18.0144 9.27538 17.9848 9.318 17.9576 9.36224L17.7339 9.27977C17.6177 8.84303 17.236 8.50884 16.7063 8.36828C16.4051 8.28399 16.0869 8.29849 15.7936 8.40988C15.6004 8.48661 15.5909 8.73115 15.7855 8.80502L16.6192 9.12128C16.711 9.15704 16.7859 9.22982 16.8275 9.3238C16.8691 9.41778 16.8741 9.52539 16.8415 9.62328C16.8263 9.67154 16.8022 9.71611 16.7706 9.7544C16.739 9.79268 16.7005 9.82391 16.6575 9.84627C16.6144 9.86863 16.5676 9.88167 16.5197 9.88463C16.4718 9.88759 16.4239 9.88041 16.3787 9.86352L15.4754 9.57666C15.4304 9.56281 15.3827 9.56222 15.3374 9.57495C15.2922 9.58768 15.251 9.61325 15.2184 9.64892C15.1857 9.68459 15.1629 9.72901 15.1522 9.77743C15.1416 9.82585 15.1435 9.87643 15.1579 9.92376C15.2775 10.354 15.6706 10.7384 16.1956 10.8775C16.6422 10.9966 17.0786 10.912 17.3786 10.6861L17.5745 10.7578C17.5887 11.249 17.9393 11.8335 18.2677 12.0486C18.7696 12.3706 19.2304 12.0838 19.754 11.8084C19.754 11.8084 21.0633 12.94 20.4566 16.1485C18.7798 16.3393 18.1737 16.9919 17.565 17.6502C17.184 17.486 16.0314 17.4064 15.418 17.5591C15.652 17.3169 15.9296 17.1272 16.2341 17.0012C16.3129 16.9674 16.3804 16.9093 16.4279 16.8344C16.4753 16.7595 16.5005 16.6712 16.5003 16.581C16.5003 16.581 17.2678 16.3156 17.2678 16.0108C17.2678 15.706 16.3219 15.7369 15.9301 13.5446C15.8672 13.29 15.795 13.0763 15.4335 12.8934C15.4049 12.815 15.3942 12.7306 15.4022 12.647C15.4102 12.5634 15.4366 12.4829 15.4795 12.4122C15.6254 12.1612 15.7328 12.0451 15.6943 11.8457C15.6558 11.6463 15.3842 11.4828 15.3842 11.4828V11.1486C15.3842 11.1486 14.6066 10.5376 14.6066 9.662C14.6066 8.78637 15.6585 7.73577 15.9456 7.43027C15.9539 7.42147 15.9602 7.41071 15.9638 7.39887C15.9674 7.38703 15.9684 7.37444 15.9666 7.36214C15.9646 7.34994 15.9601 7.33836 15.9535 7.3282C15.9468 7.31804 15.9381 7.30955 15.9281 7.30333C15.2648 6.84602 14.4894 6.60609 13.6986 6.61345C9.23961 6.61345 8.19783 10.9371 7.24254 13.0383C7.23202 13.0612 7.22656 13.0863 7.22656 13.1118C7.22656 13.1373 7.23202 13.1624 7.24254 13.1853C8.19648 15.2413 9.73618 15.0742 9.82063 16.799C9.88819 18.178 9.58957 18.2089 9.29231 18.1795C9.09773 18.1601 8.81196 17.9715 8.63833 17.8445C8.62688 17.8359 8.61319 17.8313 8.59914 17.8313C8.5851 17.8313 8.5714 17.8359 8.55996 17.8445C8.54853 17.8537 8.54014 17.8665 8.53601 17.8811C8.53188 17.8957 8.53222 17.9112 8.53699 17.9256C8.65319 18.3014 8.99707 19.073 9.98142 19.073C10.482 19.073 10.6415 18.5818 10.6415 18.1293V16.5759C10.6444 16.5014 10.6321 16.4271 10.6054 16.3582C10.5787 16.2892 10.5382 16.2272 10.4868 16.1765C10.149 15.8617 9.42608 15.1051 9.42608 14.4331C9.42608 14.1463 9.60241 13.9971 9.80914 13.9971C10.1963 13.9971 10.5712 14.626 10.8617 15.4199C10.9098 15.5701 10.9981 15.7022 11.1158 15.8C11.1225 15.8049 11.1306 15.8075 11.1388 15.8074C11.147 15.8073 11.1549 15.8045 11.1616 15.7994C11.1682 15.7943 11.1732 15.7871 11.1759 15.7789C11.1786 15.7706 11.1788 15.7617 11.1766 15.7534C11.0823 15.3672 11.0246 14.972 11.0043 14.5737C11.0019 14.5276 10.9908 14.4825 10.9718 14.441C10.9528 14.3995 10.9262 14.3624 10.8935 14.332C10.6063 14.0667 9.82806 13.2333 9.82806 11.987C9.82806 10.3081 12.2994 10.4487 12.8007 10.4946C12.9493 11.0547 13.2594 11.2971 13.4662 11.3989C12.7149 11.6972 11.0259 12.2953 11.0259 13.3287C11.0259 14.436 12.7149 14.3557 12.7149 14.3557C12.7149 14.3557 12.4447 16.5673 14.3512 17.2343C14.3512 17.2343 14.0539 17.5591 13.0304 17.5591C12.0751 17.5591 11.6116 17.0987 11.3819 16.5551C11.3774 16.5441 11.37 16.5346 11.3605 16.528C11.351 16.5214 11.3399 16.5178 11.3286 16.5178C11.3171 16.5183 11.306 16.5222 11.2967 16.5292C11.2873 16.5362 11.2801 16.546 11.2759 16.5573C11.2238 16.7007 11.1826 16.9539 11.363 17.2744C11.6441 17.77 12.0062 18.054 12.0062 18.6836C12.0062 19.149 11.6204 19.4409 11.4617 19.5406C11.4566 19.5439 11.4525 19.5487 11.45 19.5545C11.4475 19.5602 11.4466 19.5666 11.4475 19.5729C11.4481 19.5791 11.4506 19.585 11.4546 19.5897C11.4586 19.5943 11.4639 19.5975 11.4698 19.5987C11.8447 19.6969 13.552 20.1609 14.7018 20.7511C14.7061 20.7536 14.7109 20.7548 14.7157 20.7548C14.7205 20.7548 14.7253 20.7536 14.7295 20.7511C14.8586 20.6636 15.8531 19.9623 15.9098 19.0357C15.9098 19.0357 15.9848 18.4297 15.1491 18.3186C15.1491 18.3186 15.5112 18.1665 16.1625 18.1665C16.8138 18.1665 17.5279 18.7403 16.2449 21.5909C16.2416 21.5979 16.2409 21.606 16.2429 21.6135C16.2449 21.6211 16.2494 21.6276 16.2557 21.6318C16.4523 21.7659 17.9123 22.772 18.846 23.7516C18.8562 23.7626 18.8686 23.771 18.8823 23.7764C18.8959 23.7817 18.9105 23.7838 18.925 23.7825C18.9398 23.7814 18.9541 23.7769 18.967 23.7693C18.98 23.7618 18.9912 23.7513 19 23.7387C19.1203 23.5666 19.3533 23.104 19.5256 21.9667C19.533 21.9157 19.5538 21.868 19.5858 21.8291C19.6177 21.7903 19.6594 21.7619 19.706 21.7472C20.2634 21.5737 22.172 20.9039 23.0077 19.6611C23.9974 18.1952 24.3352 18.0375 24.3352 18.0375C24.3352 18.0375 24.9791 17.6481 24.7061 16.6161C24.5643 16.0775 23.8143 14.6648 23.0766 13.2183C23.257 13.3569 23.4609 13.4572 23.6772 13.5137C24.1258 13.6335 24.5649 13.5582 24.8798 13.3459C24.914 13.3227 24.9413 13.2898 24.9588 13.2509C24.9762 13.2119 24.983 13.1686 24.9784 13.1258C24.9742 13.0832 24.9588 13.0427 24.934 13.009C24.9091 12.9752 24.8758 12.9496 24.8379 12.935L24.0076 12.6202C23.9107 12.5825 23.8317 12.5058 23.7876 12.4068C23.7435 12.3078 23.7378 12.1944 23.7718 12.0909V12.0874C23.7878 12.0362 23.8133 11.989 23.8467 11.9484C23.8801 11.9079 23.9208 11.8748 23.9664 11.8511C24.012 11.8274 24.0616 11.8136 24.1123 11.8104C24.1629 11.8073 24.2137 11.8149 24.2616 11.8328L25.0047 12.1139C25.0411 12.1275 25.0804 12.1298 25.118 12.1205C25.1556 12.1113 25.1899 12.0908 25.2169 12.0615C25.2459 12.0331 25.2661 11.9961 25.2748 11.9552C25.2834 11.9143 25.2802 11.8716 25.2655 11.8328ZM16.5226 10.7262C15.8112 10.7262 15.497 10.0722 15.497 10.0722C15.497 10.0722 16.3131 10.907 17.4468 10.2278C17.4441 10.2278 17.2347 10.7262 16.5226 10.7262ZM15.6781 14.0251C15.6781 14.0251 15.9585 15.3518 16.5226 15.8179C16.5226 15.8179 16.501 15.952 16.3199 15.952C16.1388 15.952 15.8078 15.6444 15.6747 14.9279C15.5416 14.2115 15.6781 14.0229 15.6781 14.0229V14.0251ZM13.4216 9.94455C13.406 9.94296 13.3913 9.93565 13.3803 9.92388C13.3692 9.9121 13.3623 9.89659 13.3608 9.88001C13.2392 8.90685 13.631 7.71999 13.631 7.71999C13.631 7.71999 12.6757 8.55402 12.7149 9.89005C11.9042 9.86782 10.7063 9.96176 10.0003 10.6151C9.01193 11.528 8.85182 13.2513 8.82344 13.7038C8.82277 13.716 8.8192 13.7277 8.81305 13.738C8.8069 13.7483 8.79839 13.7568 8.78831 13.7626C8.77804 13.7689 8.76639 13.7722 8.75453 13.7722C8.74267 13.7722 8.73102 13.7689 8.72075 13.7626C8.48767 13.6098 7.9384 13.1078 8.33363 11.9188C8.82614 10.4365 10.3476 7.36142 13.3831 7.15345C13.3831 7.15345 14.312 7.11114 14.9369 7.47114C14.9471 7.47725 14.9557 7.48588 14.962 7.49628C14.9683 7.50669 14.9722 7.51856 14.9733 7.53089C14.9743 7.54322 14.9726 7.55564 14.9681 7.56709C14.9637 7.57854 14.9567 7.58868 14.9478 7.59664C14.2771 8.19092 13.8025 8.99687 13.5932 9.89722C13.5899 9.91539 13.5801 9.93151 13.5659 9.9422C13.5516 9.95289 13.5341 9.95733 13.5168 9.95459L13.4216 9.94455ZM13.1662 13.8063C12.0292 14.0251 11.6265 13.6479 11.6265 13.3294C11.6265 12.3577 14.2107 11.6083 14.9369 11.5933C15.0836 11.8328 14.8255 11.7919 14.7201 12.1533C14.6147 12.5148 14.358 12.6295 13.9816 12.6783C13.6022 12.7365 13.2477 12.9129 12.9628 13.1853C12.7318 13.4148 12.9628 13.5195 13.4317 13.3739C13.9006 13.2283 13.9465 13.4456 14.1343 13.3689C14.3222 13.2922 14.1553 13.049 14.2343 13.0039C14.3559 12.9357 14.6066 13.1208 14.6066 13.1208L15.2606 13.5704C15.2606 13.5704 14.5255 13.9742 14.4742 14.005C14.4228 14.0358 14.3363 14.0839 14.3363 14.195C14.3363 14.3671 14.7417 14.304 14.8829 14.304C15.0241 14.304 15.0437 14.5514 15.0437 14.5514C14.8302 14.8175 14.2742 14.8204 14.2742 14.8204C14.3978 15.1072 15.0984 15.0577 15.2396 15.0635C15.3808 15.0692 15.3957 15.2836 15.4673 15.6372C15.5389 15.9907 15.9922 16.1392 15.9922 16.1392C16.1388 16.6598 15.5599 16.8112 15.1761 16.8112C12.9291 16.809 13.1662 13.8042 13.1662 13.8042V13.8063ZM21.0511 11.196L22.655 11.7173C22.655 11.7173 22.9489 12.309 22.3557 12.1354C21.7625 11.9619 21.1835 11.7661 21.1835 11.7661C21.1835 11.7661 20.8701 11.594 21.0511 11.1938V11.196ZM19.5547 11.2677C19.1953 11.2261 19.4506 10.5971 19.1926 10.5591C19.0932 10.5441 19.0696 11.2705 18.952 11.1594C18.7203 10.9392 18.8919 10.4903 18.9162 10.2802C18.9406 10.0701 19.0345 9.80758 18.825 9.96607C18.6156 10.1246 18.5041 10.4566 18.4332 10.7399C18.3622 11.0231 18.5041 11.158 18.6021 11.4864C18.7 11.8148 18.5183 11.7015 18.5183 11.7015C17.5434 11.0697 18.2481 9.73873 18.2481 9.73873C18.6703 8.95849 19.3027 9.19156 19.3027 9.19156C19.425 9.23889 19.456 9.31634 19.456 9.48272C19.456 9.64909 19.4972 9.70144 19.6783 9.74806C19.8594 9.79467 19.9486 10.0349 19.9486 10.4258C19.9486 10.8166 19.7155 11.287 19.5547 11.2655V11.2677ZM20.3573 11.2677C20.3573 11.2677 20.112 11.2153 20.1904 10.818C20.2296 10.6839 20.258 10.6854 20.258 10.4803C20.258 10.2752 20.3073 10.0363 20.4607 9.96607C20.4607 9.96607 20.7187 9.96607 20.7187 10.6983C20.716 11.0124 20.3573 11.2655 20.3573 11.2655V11.2677ZM20.3573 17.7786C20.3573 17.7786 19.7209 19.0809 18.8554 19.0809C18.7743 19.0839 18.6935 19.0692 18.6181 19.0374C18.5427 19.0057 18.4742 18.9578 18.4171 18.8966C18.36 18.8354 18.3154 18.7624 18.2862 18.682C18.257 18.6017 18.2438 18.5158 18.2474 18.4297C18.2474 18.0518 18.6757 16.6986 20.5363 16.6986C20.9815 16.6986 21.3295 16.7868 21.3295 17.0772C21.3295 17.3677 20.9106 17.8653 20.3573 17.7764V17.7786ZM23.6677 16.3213C23.6677 16.3213 23.5718 17.0858 22.6976 17.0858C21.8233 17.0858 21.0592 15.7455 20.7579 12.6783C20.9748 13.0433 21.1957 13.3954 21.3606 13.8063C21.3606 13.3761 21.547 12.6589 20.6579 11.9188C20.6579 11.9188 23.011 12.4481 23.0664 15.0656C23.0514 15.4649 22.91 15.8472 22.6651 16.1507C22.6342 16.1818 22.6135 16.2227 22.6062 16.2672C22.5989 16.3118 22.6054 16.3577 22.6246 16.3981C22.6922 16.5415 22.8543 16.5092 23.0766 16.3479C23.2989 16.1865 23.6684 15.9068 23.6684 16.3192L23.6677 16.3213ZM23.8907 13.1724C23.8907 13.1724 23.2826 13.3388 22.6564 12.6374C22.6564 12.6374 22.8996 12.6675 22.9624 12.2788C22.9631 12.2803 23.3049 13.0426 23.8914 13.1702L23.8907 13.1724Z"/><path d="M13.9952 14.4004C13.9952 14.4004 13.6648 14.4951 13.7533 14.9884C13.8418 15.4818 14.2161 15.4976 14.2161 15.4976C13.8912 15.0881 13.9952 14.4004 13.9952 14.4004Z"/><path fill-rule="evenodd" clip-rule="evenodd" d="M8.46872 21.2555C9.61116 21.9554 12.1332 22.7701 12.6574 24.2359C12.6574 24.2359 12.8378 24.5615 11.842 24.5615C11.0934 24.5608 10.8907 24.3621 10.3503 23.6938C9.56319 22.7098 8.00391 22.1376 8.00391 21.3781C8.00593 21.3767 8.01607 20.9772 8.46872 21.2555Z"/></svg>