<svg fill="#11003a" role="img" viewBox="0 0 500 500" xmlns="http://www.w3.org/2000/svg"><title>ShipStation</title><path d="M455.22,455.22V44.78s-410.44,0-410.44,0v410.44s410.44,0,410.44,0Z"/><path d="M390.32,228.49c-20.22,0-36.61-16.39-36.61-36.62,0-10.11,4.1-19.26,10.72-25.88,0,0,0,0,0,0l-30.41-30.42s0,0-.01.01c-6.62,6.62-15.77,10.72-25.88,10.72-20.22,0-36.61-16.39-36.61-36.62h0s-21.51,0-21.51,0h-21.51c0,20.23-16.39,36.62-36.61,36.62-10.11,0-19.26-4.1-25.88-10.72,0,0,0,0-.01-.01l-30.41,30.42s0,0,0,0c6.62,6.63,10.72,15.78,10.72,25.88,0,20.22-16.39,36.62-36.61,36.62,0,0,0,0-.01,0v43.02s0,0,.01,0c20.22,0,36.61,16.39,36.61,36.62,0,10.11-4.1,19.26-10.72,25.88,0,0,0,0,0,0l30.41,30.42s0,0,.01-.01c6.62-6.62,15.77-10.72,25.88-10.72,20.22,0,36.61,16.39,36.61,36.62h0s21.51,0,21.51,0h21.51c0-20.23,16.39-36.62,36.61-36.62,10.11,0,19.26,4.1,25.88,10.72,0,0,0,0,.01.01l30.41-30.42s0,0,0,0c-6.62-6.63-10.72-15.78-10.72-25.88,0-20.22,16.39-36.62,36.61-36.62,0,0,0,0,.01,0v-43.02s0,0-.01,0ZM320.48,290.69l-70.48,40.69-70.48-40.69v-81.38l70.48-40.69,70.48,40.69v81.38Z" fill="#fff"/></svg>