<?xml version="1.0" standalone="no"?>
<!DOCTYPE svg PUBLIC "-//W3C//DTD SVG 20010904//EN"
 "http://www.w3.org/TR/2001/REC-SVG-20010904/DTD/svg10.dtd">
<svg version="1.0" xmlns="http://www.w3.org/2000/svg"
 width="500.000000pt" height="500.000000pt" viewBox="0 0 500.000000 500.000000"
 preserveAspectRatio="xMidYMid meet">
<metadata>
Created by potrace 1.10, written by Peter Selinger 2001-2011
</metadata>
<g transform="translate(0.000000,500.000000) scale(0.050000,-0.050000)"
fill="#000000" stroke="none">
<path d="M3477 6829 c-439 -136 -594 -642 -299 -979 107 -122 144 -151 514
-400 469 -316 610 -513 549 -767 -146 -606 -1028 -468 -1199 188 -15 54 -30
115 -35 134 -6 19 -23 35 -38 35 -24 0 -29 -50 -29 -280 l0 -279 65 -66 c139
-141 369 -247 584 -268 123 -12 85 21 -48 41 -213 33 -381 115 -517 254 l-64
66 1 261 1 261 60 -178 c90 -272 230 -445 430 -535 186 -83 553 -41 648 73 13
16 35 24 47 17 13 -8 17 -6 9 2 -8 9 7 44 33 78 124 164 113 466 -21 611 -25
27 -41 57 -35 66 5 9 1 15 -9 11 -26 -7 -148 122 -135 144 6 9 -5 13 -25 8
-20 -5 -73 19 -125 58 -49 37 -168 120 -265 184 -97 65 -189 136 -205 159 -17
23 -35 38 -41 32 -16 -14 -161 135 -214 220 -36 57 -44 100 -44 230 0 243 13
278 171 443 76 80 102 96 144 89 8 -1 15 6 15 15 0 35 260 89 377 78 165 -16
443 -116 443 -160 0 -8 13 -15 29 -15 80 0 110 -94 108 -337 -3 -236 -7 -239
-64 -47 -30 100 -136 279 -182 307 -11 8 -42 32 -68 54 -108 94 -441 128 -549
57 -279 -182 -318 -450 -97 -667 46 -44 83 -93 83 -107 0 -15 5 -21 12 -15 15
16 518 -318 597 -396 11 -12 28 -23 37 -24 56 -8 363 -354 343 -387 -5 -9 -1
-21 11 -28 30 -18 24 24 -13 96 -88 170 -242 305 -697 610 -463 310 -572 503
-422 741 254 403 858 159 961 -388 8 -41 25 -69 42 -69 24 0 29 47 29 268 l0
268 -73 64 c-194 170 -574 247 -830 169z"/>
<path d="M4420 6752 c0 -17 30 -34 78 -42 160 -27 151 43 158 -1197 7 -1309
14 -1260 -181 -1302 -30 -6 -55 -25 -55 -41 0 -26 59 -30 390 -30 320 0 390 5
390 28 0 15 -14 33 -32 40 -54 21 -108 13 -108 -15 0 -22 -53 -27 -260 -25
-242 2 -310 16 -225 46 111 39 105 -30 105 1246 l0 1173 -46 44 c-26 23 -64
43 -85 43 -22 0 -52 9 -69 20 -21 13 32 19 165 20 143 0 195 -7 195 -25 1 -19
4 -19 16 -1 10 16 89 22 259 20 135 -2 245 3 245 11 0 8 -211 15 -470 15 -391
0 -470 -5 -470 -28z"/>
<path d="M5420 6746 c334 -59 725 -419 657 -604 -10 -28 -9 -40 3 -32 19 12
31 -93 25 -210 -3 -42 0 -44 16 -16 29 50 -9 339 -58 440 -110 228 -416 441
-621 433 -54 -2 -59 -5 -22 -11z"/>
<path d="M4929 6635 c-5 -14 -7 -336 -4 -715 l5 -690 160 -6 c89 -3 200 5 250
19 50 15 95 27 100 28 135 29 366 269 343 356 -2 10 6 30 19 46 117 140 -28
785 -187 838 -19 6 -35 18 -35 26 0 17 -107 72 -198 101 -98 31 -441 29 -453
-3z m519 -56 c235 -88 364 -325 359 -659 -6 -444 -230 -660 -683 -660 l-164 0
0 680 0 680 189 0 c142 0 217 -10 299 -41z"/>
<path d="M6082 5742 c-34 -133 -102 -265 -128 -248 -11 7 -14 3 -7 -9 26 -43
-251 -265 -330 -265 -17 0 -37 -7 -45 -15 -9 -8 -48 -25 -89 -38 -65 -20 -68
-23 -20 -25 263 -10 688 418 654 659 -5 36 -14 21 -35 -59z"/>
<path d="M5154 5145 l-236 -6 3 -405 c4 -415 24 -514 103 -514 12 0 5 19 -16
42 -34 38 -39 82 -44 450 l-6 408 221 0 c134 0 221 8 221 20 0 11 -2 18 -5 16
-3 -3 -111 -7 -241 -11z"/>
<path d="M4508 4856 c-1 -132 -9 -184 -30 -197 -15 -10 -21 -19 -13 -19 112
-2 -289 -400 -403 -400 -22 0 -44 -8 -50 -17 -6 -10 -81 -29 -166 -44 -112
-20 -139 -29 -96 -35 214 -28 570 151 692 348 79 128 130 447 83 521 -8 13
-16 -58 -17 -157z"/>
</g>
</svg>
